<mxfile host="app.diagrams.net" modified="2024-05-03T19:19:30.394Z" agent="Mozilla/5.0 (Windows NT 10.0; Win64; x64; rv:125.0) Gecko/20100101 Firefox/125.0" etag="_55YBZ4-lrQJw3SuTsha" version="24.3.1" type="device">
  <diagram id="C5RBs43oDa-KdzZeNtuy" name="Page-1">
    <mxGraphModel dx="1395" dy="652" grid="1" gridSize="10" guides="1" tooltips="1" connect="1" arrows="1" fold="1" page="1" pageScale="1" pageWidth="827" pageHeight="1169" math="0" shadow="0">
      <root>
        <mxCell id="WIyWlLk6GJQsqaUBKTNV-0" />
        <mxCell id="WIyWlLk6GJQsqaUBKTNV-1" parent="WIyWlLk6GJQsqaUBKTNV-0" />
        <mxCell id="zkfFHV4jXpPFQw0GAbJ--0" value="&lt;&lt;Inteface&gt;&gt;&#xa;Mediator&#xa;" style="swimlane;fontStyle=2;align=center;verticalAlign=top;childLayout=stackLayout;horizontal=1;startSize=40;horizontalStack=0;resizeParent=1;resizeLast=0;collapsible=1;marginBottom=0;rounded=0;shadow=0;strokeWidth=1;" parent="WIyWlLk6GJQsqaUBKTNV-1" vertex="1">
          <mxGeometry x="330" y="170" width="160" height="74" as="geometry">
            <mxRectangle x="230" y="140" width="160" height="26" as="alternateBounds" />
          </mxGeometry>
        </mxCell>
        <mxCell id="zkfFHV4jXpPFQw0GAbJ--4" value="" style="line;html=1;strokeWidth=1;align=left;verticalAlign=middle;spacingTop=-1;spacingLeft=3;spacingRight=3;rotatable=0;labelPosition=right;points=[];portConstraint=eastwest;" parent="zkfFHV4jXpPFQw0GAbJ--0" vertex="1">
          <mxGeometry y="40" width="160" height="8" as="geometry" />
        </mxCell>
        <mxCell id="zkfFHV4jXpPFQw0GAbJ--5" value="+notify(sender)" style="text;align=left;verticalAlign=top;spacingLeft=4;spacingRight=4;overflow=hidden;rotatable=0;points=[[0,0.5],[1,0.5]];portConstraint=eastwest;" parent="zkfFHV4jXpPFQw0GAbJ--0" vertex="1">
          <mxGeometry y="48" width="160" height="26" as="geometry" />
        </mxCell>
        <mxCell id="HKVrnKFLsjomgZWF7tVS-0" value="ConcreteMediator" style="swimlane;fontStyle=2;align=center;verticalAlign=top;childLayout=stackLayout;horizontal=1;startSize=26;horizontalStack=0;resizeParent=1;resizeLast=0;collapsible=1;marginBottom=0;rounded=0;shadow=0;strokeWidth=1;" vertex="1" parent="WIyWlLk6GJQsqaUBKTNV-1">
          <mxGeometry x="330" y="280" width="160" height="224" as="geometry">
            <mxRectangle x="230" y="140" width="160" height="26" as="alternateBounds" />
          </mxGeometry>
        </mxCell>
        <mxCell id="HKVrnKFLsjomgZWF7tVS-1" value="-componentA" style="text;align=left;verticalAlign=top;spacingLeft=4;spacingRight=4;overflow=hidden;rotatable=0;points=[[0,0.5],[1,0.5]];portConstraint=eastwest;" vertex="1" parent="HKVrnKFLsjomgZWF7tVS-0">
          <mxGeometry y="26" width="160" height="26" as="geometry" />
        </mxCell>
        <mxCell id="HKVrnKFLsjomgZWF7tVS-2" value="-componentB" style="text;align=left;verticalAlign=top;spacingLeft=4;spacingRight=4;overflow=hidden;rotatable=0;points=[[0,0.5],[1,0.5]];portConstraint=eastwest;rounded=0;shadow=0;html=0;" vertex="1" parent="HKVrnKFLsjomgZWF7tVS-0">
          <mxGeometry y="52" width="160" height="26" as="geometry" />
        </mxCell>
        <mxCell id="HKVrnKFLsjomgZWF7tVS-3" value="-componentC" style="text;align=left;verticalAlign=top;spacingLeft=4;spacingRight=4;overflow=hidden;rotatable=0;points=[[0,0.5],[1,0.5]];portConstraint=eastwest;rounded=0;shadow=0;html=0;" vertex="1" parent="HKVrnKFLsjomgZWF7tVS-0">
          <mxGeometry y="78" width="160" height="26" as="geometry" />
        </mxCell>
        <mxCell id="HKVrnKFLsjomgZWF7tVS-4" value="" style="line;html=1;strokeWidth=1;align=left;verticalAlign=middle;spacingTop=-1;spacingLeft=3;spacingRight=3;rotatable=0;labelPosition=right;points=[];portConstraint=eastwest;" vertex="1" parent="HKVrnKFLsjomgZWF7tVS-0">
          <mxGeometry y="104" width="160" height="8" as="geometry" />
        </mxCell>
        <mxCell id="HKVrnKFLsjomgZWF7tVS-5" value="+notify(sender)" style="text;align=left;verticalAlign=top;spacingLeft=4;spacingRight=4;overflow=hidden;rotatable=0;points=[[0,0.5],[1,0.5]];portConstraint=eastwest;" vertex="1" parent="HKVrnKFLsjomgZWF7tVS-0">
          <mxGeometry y="112" width="160" height="28" as="geometry" />
        </mxCell>
        <mxCell id="HKVrnKFLsjomgZWF7tVS-12" value="+reactOnA()" style="text;align=left;verticalAlign=top;spacingLeft=4;spacingRight=4;overflow=hidden;rotatable=0;points=[[0,0.5],[1,0.5]];portConstraint=eastwest;" vertex="1" parent="HKVrnKFLsjomgZWF7tVS-0">
          <mxGeometry y="140" width="160" height="28" as="geometry" />
        </mxCell>
        <mxCell id="HKVrnKFLsjomgZWF7tVS-13" value="+reactOnB()" style="text;align=left;verticalAlign=top;spacingLeft=4;spacingRight=4;overflow=hidden;rotatable=0;points=[[0,0.5],[1,0.5]];portConstraint=eastwest;" vertex="1" parent="HKVrnKFLsjomgZWF7tVS-0">
          <mxGeometry y="168" width="160" height="28" as="geometry" />
        </mxCell>
        <mxCell id="HKVrnKFLsjomgZWF7tVS-14" value="+reactOnC()" style="text;align=left;verticalAlign=top;spacingLeft=4;spacingRight=4;overflow=hidden;rotatable=0;points=[[0,0.5],[1,0.5]];portConstraint=eastwest;" vertex="1" parent="HKVrnKFLsjomgZWF7tVS-0">
          <mxGeometry y="196" width="160" height="28" as="geometry" />
        </mxCell>
        <mxCell id="HKVrnKFLsjomgZWF7tVS-15" value="ComponentA" style="swimlane;fontStyle=2;align=center;verticalAlign=top;childLayout=stackLayout;horizontal=1;startSize=20;horizontalStack=0;resizeParent=1;resizeLast=0;collapsible=1;marginBottom=0;rounded=0;shadow=0;strokeWidth=1;" vertex="1" parent="WIyWlLk6GJQsqaUBKTNV-1">
          <mxGeometry x="80" y="164" width="160" height="86" as="geometry">
            <mxRectangle x="230" y="140" width="160" height="26" as="alternateBounds" />
          </mxGeometry>
        </mxCell>
        <mxCell id="HKVrnKFLsjomgZWF7tVS-18" value="-m: Mediator" style="text;align=left;verticalAlign=top;spacingLeft=4;spacingRight=4;overflow=hidden;rotatable=0;points=[[0,0.5],[1,0.5]];portConstraint=eastwest;" vertex="1" parent="HKVrnKFLsjomgZWF7tVS-15">
          <mxGeometry y="20" width="160" height="26" as="geometry" />
        </mxCell>
        <mxCell id="HKVrnKFLsjomgZWF7tVS-16" value="" style="line;html=1;strokeWidth=1;align=left;verticalAlign=middle;spacingTop=-1;spacingLeft=3;spacingRight=3;rotatable=0;labelPosition=right;points=[];portConstraint=eastwest;" vertex="1" parent="HKVrnKFLsjomgZWF7tVS-15">
          <mxGeometry y="46" width="160" height="14" as="geometry" />
        </mxCell>
        <mxCell id="HKVrnKFLsjomgZWF7tVS-17" value="+operationA()" style="text;align=left;verticalAlign=top;spacingLeft=4;spacingRight=4;overflow=hidden;rotatable=0;points=[[0,0.5],[1,0.5]];portConstraint=eastwest;" vertex="1" parent="HKVrnKFLsjomgZWF7tVS-15">
          <mxGeometry y="60" width="160" height="26" as="geometry" />
        </mxCell>
        <mxCell id="HKVrnKFLsjomgZWF7tVS-19" value="ComponentB" style="swimlane;fontStyle=2;align=center;verticalAlign=top;childLayout=stackLayout;horizontal=1;startSize=20;horizontalStack=0;resizeParent=1;resizeLast=0;collapsible=1;marginBottom=0;rounded=0;shadow=0;strokeWidth=1;" vertex="1" parent="WIyWlLk6GJQsqaUBKTNV-1">
          <mxGeometry x="330" y="20" width="160" height="86" as="geometry">
            <mxRectangle x="230" y="140" width="160" height="26" as="alternateBounds" />
          </mxGeometry>
        </mxCell>
        <mxCell id="HKVrnKFLsjomgZWF7tVS-20" value="-m: Mediator" style="text;align=left;verticalAlign=top;spacingLeft=4;spacingRight=4;overflow=hidden;rotatable=0;points=[[0,0.5],[1,0.5]];portConstraint=eastwest;" vertex="1" parent="HKVrnKFLsjomgZWF7tVS-19">
          <mxGeometry y="20" width="160" height="26" as="geometry" />
        </mxCell>
        <mxCell id="HKVrnKFLsjomgZWF7tVS-21" value="" style="line;html=1;strokeWidth=1;align=left;verticalAlign=middle;spacingTop=-1;spacingLeft=3;spacingRight=3;rotatable=0;labelPosition=right;points=[];portConstraint=eastwest;" vertex="1" parent="HKVrnKFLsjomgZWF7tVS-19">
          <mxGeometry y="46" width="160" height="14" as="geometry" />
        </mxCell>
        <mxCell id="HKVrnKFLsjomgZWF7tVS-22" value="+operationB()" style="text;align=left;verticalAlign=top;spacingLeft=4;spacingRight=4;overflow=hidden;rotatable=0;points=[[0,0.5],[1,0.5]];portConstraint=eastwest;" vertex="1" parent="HKVrnKFLsjomgZWF7tVS-19">
          <mxGeometry y="60" width="160" height="26" as="geometry" />
        </mxCell>
        <mxCell id="HKVrnKFLsjomgZWF7tVS-23" value="ComponentC" style="swimlane;fontStyle=2;align=center;verticalAlign=top;childLayout=stackLayout;horizontal=1;startSize=20;horizontalStack=0;resizeParent=1;resizeLast=0;collapsible=1;marginBottom=0;rounded=0;shadow=0;strokeWidth=1;" vertex="1" parent="WIyWlLk6GJQsqaUBKTNV-1">
          <mxGeometry x="590" y="164" width="160" height="86" as="geometry">
            <mxRectangle x="230" y="140" width="160" height="26" as="alternateBounds" />
          </mxGeometry>
        </mxCell>
        <mxCell id="HKVrnKFLsjomgZWF7tVS-24" value="-m: Mediator" style="text;align=left;verticalAlign=top;spacingLeft=4;spacingRight=4;overflow=hidden;rotatable=0;points=[[0,0.5],[1,0.5]];portConstraint=eastwest;" vertex="1" parent="HKVrnKFLsjomgZWF7tVS-23">
          <mxGeometry y="20" width="160" height="26" as="geometry" />
        </mxCell>
        <mxCell id="HKVrnKFLsjomgZWF7tVS-25" value="" style="line;html=1;strokeWidth=1;align=left;verticalAlign=middle;spacingTop=-1;spacingLeft=3;spacingRight=3;rotatable=0;labelPosition=right;points=[];portConstraint=eastwest;" vertex="1" parent="HKVrnKFLsjomgZWF7tVS-23">
          <mxGeometry y="46" width="160" height="14" as="geometry" />
        </mxCell>
        <mxCell id="HKVrnKFLsjomgZWF7tVS-26" value="+operationC()" style="text;align=left;verticalAlign=top;spacingLeft=4;spacingRight=4;overflow=hidden;rotatable=0;points=[[0,0.5],[1,0.5]];portConstraint=eastwest;" vertex="1" parent="HKVrnKFLsjomgZWF7tVS-23">
          <mxGeometry y="60" width="160" height="26" as="geometry" />
        </mxCell>
        <mxCell id="HKVrnKFLsjomgZWF7tVS-27" value="" style="endArrow=block;dashed=1;endFill=0;endSize=12;html=1;rounded=0;exitX=0.5;exitY=0;exitDx=0;exitDy=0;entryX=0.5;entryY=1;entryDx=0;entryDy=0;" edge="1" parent="WIyWlLk6GJQsqaUBKTNV-1" source="HKVrnKFLsjomgZWF7tVS-0" target="zkfFHV4jXpPFQw0GAbJ--0">
          <mxGeometry width="160" relative="1" as="geometry">
            <mxPoint x="410" y="270" as="sourcePoint" />
            <mxPoint x="570" y="270" as="targetPoint" />
          </mxGeometry>
        </mxCell>
        <mxCell id="HKVrnKFLsjomgZWF7tVS-28" value="" style="endArrow=open;endSize=12;dashed=1;html=1;rounded=0;entryX=0;entryY=0.5;entryDx=0;entryDy=0;exitX=0.998;exitY=0.25;exitDx=0;exitDy=0;exitPerimeter=0;" edge="1" parent="WIyWlLk6GJQsqaUBKTNV-1" source="HKVrnKFLsjomgZWF7tVS-17" target="zkfFHV4jXpPFQw0GAbJ--5">
          <mxGeometry width="160" relative="1" as="geometry">
            <mxPoint x="120" y="300" as="sourcePoint" />
            <mxPoint x="280" y="300" as="targetPoint" />
          </mxGeometry>
        </mxCell>
        <mxCell id="HKVrnKFLsjomgZWF7tVS-29" value="" style="endArrow=open;endSize=12;dashed=1;html=1;rounded=0;exitX=0.5;exitY=1;exitDx=0;exitDy=0;entryX=0.5;entryY=0;entryDx=0;entryDy=0;" edge="1" parent="WIyWlLk6GJQsqaUBKTNV-1" source="HKVrnKFLsjomgZWF7tVS-19" target="zkfFHV4jXpPFQw0GAbJ--0">
          <mxGeometry width="160" relative="1" as="geometry">
            <mxPoint x="410" y="130" as="sourcePoint" />
            <mxPoint x="570" y="130" as="targetPoint" />
          </mxGeometry>
        </mxCell>
        <mxCell id="HKVrnKFLsjomgZWF7tVS-30" value="" style="endArrow=open;endSize=12;dashed=1;html=1;rounded=0;exitX=0;exitY=0.231;exitDx=0;exitDy=0;entryX=1;entryY=0.5;entryDx=0;entryDy=0;exitPerimeter=0;" edge="1" parent="WIyWlLk6GJQsqaUBKTNV-1" source="HKVrnKFLsjomgZWF7tVS-26" target="zkfFHV4jXpPFQw0GAbJ--5">
          <mxGeometry width="160" relative="1" as="geometry">
            <mxPoint x="520" y="90" as="sourcePoint" />
            <mxPoint x="520" y="154" as="targetPoint" />
          </mxGeometry>
        </mxCell>
      </root>
    </mxGraphModel>
  </diagram>
</mxfile>
